<?xml version="1.0" encoding="UTF-8" standalone="no"?>
<!DOCTYPE svg PUBLIC "-//W3C//DTD SVG 1.1//EN" "http://www.w3.org/Graphics/SVG/1.1/DTD/svg11.dtd">
<svg version="1.1" xmlns="http://www.w3.org/2000/svg" xmlns:xlink="http://www.w3.org/1999/xlink" preserveAspectRatio="xMidYMid meet" viewBox="0 0 640 640" width="640" height="640"><defs><path d="M0 0L640 0L640 640L0 640L0 0Z" id="d4f6xA9smH"></path><path d="M243.49 237.2L397.72 237.2L397.72 401.29L243.49 401.29L243.49 237.2Z" id="cu8BQOgps"></path><path d="M243.49 359.87L243.49 279.55L320.6 234.12" id="d24d4R0Byn"></path><path d="M397.72 359.87L397.72 279.55L320.6 234.12" id="dtsaQBkgW"></path><path d="M243.49 278.68L243.49 359.01L320.6 404.44" id="aByW1IjW1"></path><path d="M397.72 278.68L397.72 359.01L320.6 404.44" id="a9DHQtP5"></path><path d="M320.6 404.44L320.6 234.12" id="bM5SeB6YI"></path><path d="M226.44 224.14L344.12 219.72L232.52 284.92L226.44 224.14Z" id="fLVBZdmlv"></path><path d="M370.31 195.6L432.66 295.5L320.6 231.1L370.31 195.6Z" id="a1TLbXbpgS"></path><path d="M269.87 441.38L205.58 342.71L318.87 404.93L269.87 441.38Z" id="a1LyKBymq"></path><path d="M415.41 414.57L297.73 419.05L409.3 353.8L415.41 414.57Z" id="aaGQrqyWS"></path><path d="" id="g5mXuyXKaQ"></path><path d="M357.86 286.61L283.34 286.61" id="d1sLPsIAUc"></path><path d="M357.86 320L283.34 320" id="g1cwaSBqO3"></path><path d="M357.86 353.8L283.34 353.8" id="b4tZKcrbZ5"></path></defs><g><g><g><use xlink:href="#d4f6xA9smH" opacity="1" fill="#323232" fill-opacity="1"></use></g><g><use xlink:href="#cu8BQOgps" opacity="1" fill="#1acc53" fill-opacity="1"></use></g><g><g><use xlink:href="#d24d4R0Byn" opacity="1" fill-opacity="0" stroke="#323232" stroke-width="8" stroke-opacity="1"></use></g></g><g><g><use xlink:href="#dtsaQBkgW" opacity="1" fill-opacity="0" stroke="#323232" stroke-width="8" stroke-opacity="1"></use></g></g><g><g><use xlink:href="#aByW1IjW1" opacity="1" fill-opacity="0" stroke="#323232" stroke-width="8" stroke-opacity="1"></use></g></g><g><g><use xlink:href="#a9DHQtP5" opacity="1" fill-opacity="0" stroke="#323232" stroke-width="8" stroke-opacity="1"></use></g></g><g><g><use xlink:href="#bM5SeB6YI" opacity="1" fill-opacity="0" stroke="#323232" stroke-width="5" stroke-opacity="1"></use></g></g><g><use xlink:href="#fLVBZdmlv" opacity="1" fill="#323232" fill-opacity="1"></use><g><use xlink:href="#fLVBZdmlv" opacity="1" fill-opacity="0" stroke="#323232" stroke-width="2" stroke-opacity="1"></use></g></g><g><use xlink:href="#a1TLbXbpgS" opacity="1" fill="#323232" fill-opacity="1"></use><g><use xlink:href="#a1TLbXbpgS" opacity="1" fill-opacity="0" stroke="#323232" stroke-width="2" stroke-opacity="1"></use></g></g><g><use xlink:href="#a1LyKBymq" opacity="1" fill="#323232" fill-opacity="1"></use><g><use xlink:href="#a1LyKBymq" opacity="1" fill-opacity="0" stroke="#323232" stroke-width="2" stroke-opacity="1"></use></g></g><g><use xlink:href="#aaGQrqyWS" opacity="1" fill="#323232" fill-opacity="1"></use><g><use xlink:href="#aaGQrqyWS" opacity="1" fill-opacity="0" stroke="#323232" stroke-width="2" stroke-opacity="1"></use></g></g><g><g><use xlink:href="#g5mXuyXKaQ" opacity="1" fill-opacity="0" stroke="#323232" stroke-width="3" stroke-opacity="1"></use></g></g><g><g><use xlink:href="#d1sLPsIAUc" opacity="1" fill-opacity="0" stroke="#323232" stroke-width="5" stroke-opacity="1"></use></g></g><g><g><use xlink:href="#g1cwaSBqO3" opacity="1" fill-opacity="0" stroke="#323232" stroke-width="5" stroke-opacity="1"></use></g></g><g><g><use xlink:href="#b4tZKcrbZ5" opacity="1" fill-opacity="0" stroke="#323232" stroke-width="5" stroke-opacity="1"></use></g></g></g></g></svg>